<svg width="19" height="19" viewBox="0 0 19 19" fill="none" xmlns="http://www.w3.org/2000/svg">
<path d="M16.8332 17.5001H10.1665M1.4165 17.9167L6.04089 16.1381C6.33668 16.0243 6.48457 15.9675 6.62294 15.8932C6.74584 15.8272 6.863 15.7511 6.9732 15.6656C7.09727 15.5693 7.20932 15.4572 7.4334 15.2332L16.8332 5.83338C17.7537 4.91291 17.7537 3.42052 16.8332 2.50005C15.9127 1.57957 14.4203 1.57957 13.4999 2.50005L4.10007 11.8998C3.87598 12.1239 3.76394 12.2359 3.66766 12.36C3.58215 12.4702 3.50601 12.5874 3.44003 12.7103C3.36576 12.8487 3.30888 12.9965 3.19511 13.2923L1.4165 17.9167ZM1.4165 17.9167L3.1316 13.4575C3.25433 13.1384 3.3157 12.9789 3.42095 12.9058C3.51294 12.8419 3.62676 12.8178 3.73675 12.8388C3.86261 12.8628 3.98349 12.9837 4.22524 13.2254L6.10781 15.108C6.34956 15.3498 6.47044 15.4706 6.49447 15.5965C6.51548 15.7065 6.49133 15.8203 6.42746 15.9123C6.35438 16.0175 6.19483 16.0789 5.87573 16.2016L1.4165 17.9167Z" stroke="#333333" stroke-width="1.67" stroke-linecap="round" stroke-linejoin="round"/>
</svg>
