<svg width="28" height="31" viewBox="0 0 28 31" fill="none" xmlns="http://www.w3.org/2000/svg">
<path opacity="0.0714286" d="M25.5237 12.5609L24.8974 21.3678C24.6752 24.4917 22.4089 27.0948 19.4619 27.6108L12.906 28.7587C10.2988 29.2152 7.74707 27.9274 6.50738 25.5293L2.01033 16.8303C0.770641 14.4322 1.10428 11.4294 2.84695 9.30051L7.22896 3.94737C9.1987 1.54108 12.4585 0.859646 15.0469 2.31307L22.3442 6.41052C24.4672 7.60259 25.7059 9.99872 25.5237 12.5609Z" stroke="url(#paint0_linear_1_1083)" stroke-width="0.917687"/>
<path opacity="0.142857" d="M25.7155 17.5271L21.9059 25.421C20.5452 28.2406 17.3883 29.7159 14.3938 28.9316L8.15101 27.2967C5.57581 26.6222 3.70379 24.4198 3.44283 21.7575L2.44888 11.6175C2.18792 8.95514 3.59197 6.3835 5.98013 5.14971L11.7695 2.15875C14.5465 0.724071 17.9205 1.46335 19.7982 3.91792L25.0552 10.79C26.5262 12.7131 26.7816 15.3182 25.7155 17.5271Z" stroke="url(#paint1_linear_1_1083)" stroke-width="0.917687"/>
<path opacity="0.214286" d="M23.9846 22.3483L17.6139 28.0073C15.3439 30.0238 11.9419 30.0677 9.49731 28.112L4.288 23.9447C2.16572 22.2469 1.24903 19.4184 1.98479 16.8379L4.74247 7.16624C5.47823 4.5858 7.71329 2.7905 10.3582 2.65549L16.8502 2.3241C19.8967 2.16859 22.6943 4.2448 23.5246 7.2776L25.8549 15.789C26.5154 18.2016 25.7904 20.7442 23.9846 22.3483Z" stroke="url(#paint2_linear_1_1083)" stroke-width="0.917687"/>
<path opacity="0.285714" d="M20.4689 26.0986L12.6217 28.6133C9.85165 29.501 6.8525 28.2211 5.38463 25.5249L1.95231 19.2203C0.624144 16.7807 0.855361 13.7306 2.53077 11.5896L8.37086 4.1268C10.0463 1.98586 12.8075 1.21205 15.2788 2.19092L21.6652 4.72055C24.3964 5.80237 26.0927 8.74712 25.7584 11.8263L24.8114 20.5494C24.5271 23.1683 22.8249 25.3436 20.4689 26.0986Z" stroke="url(#paint3_linear_1_1083)" stroke-width="0.917687"/>
<path opacity="0.357143" d="M15.8057 27.98L7.78337 27.0212C4.97542 26.6855 2.78901 24.4209 2.43964 21.4862L1.53503 13.8875C1.20338 11.1016 2.60556 8.34381 5.02598 7.02143L12.7434 2.80509C15.1638 1.48272 18.0688 1.88739 19.9758 3.8126L25.1773 9.06372C27.1861 11.0917 27.6097 14.3195 26.2124 16.9526L22.2205 24.4754C20.9361 26.8958 18.3868 28.2885 15.8057 27.98Z" stroke="url(#paint4_linear_1_1083)" stroke-width="0.917687"/>
<path opacity="0.428571" d="M10.9599 27.7092L3.98791 23.5036C1.55585 22.0366 0.388092 19.1365 1.11491 16.3686L3.09691 8.82089C3.80465 6.12571 6.14952 4.1688 8.92017 3.96105L17.3262 3.33078C20.0968 3.12304 22.6729 4.71099 23.7235 7.27432L26.6659 14.4528C27.7449 17.0853 26.9649 20.1314 24.7469 21.9471L18.3886 27.1522C16.2641 28.8914 13.2895 29.1144 10.9599 27.7092Z" stroke="url(#paint5_linear_1_1083)" stroke-width="0.917687"/>
<path opacity="0.5" d="M6.7733 25.5697L1.86525 18.7458C0.150415 16.3615 0.141454 13.1525 1.84328 10.8769L6.36555 4.82985C8.00164 2.64212 10.8492 1.81542 13.4461 2.77422L21.5261 5.75741C24.123 6.71621 25.8922 9.24746 25.9254 12.0515L26.0169 19.802C26.0514 22.7186 24.2018 25.2414 21.4815 25.9882L13.6958 28.1255C11.1435 28.8262 8.38221 27.8067 6.7733 25.5697Z" stroke="url(#paint6_linear_1_1083)" stroke-width="0.917687"/>
<path opacity="0.571429" d="M3.71756 22.0322L1.65778 13.5772C0.933159 10.6028 2.18958 7.49665 4.70389 6.04656L10.8103 2.52481C13.1255 1.18954 15.985 1.56563 17.9513 3.46403L24.5902 9.87362C26.5565 11.772 27.2042 14.782 26.2078 17.3905L23.5796 24.2704C22.4975 27.1032 19.7478 28.7677 16.9133 28.3059L8.85596 26.9932C6.37572 26.5891 4.3516 24.6349 3.71756 22.0322Z" stroke="url(#paint7_linear_1_1083)" stroke-width="0.917687"/>
<path opacity="0.642857" d="M2.09849 17.5075L3.29819 8.75427C3.72445 5.6442 6.18099 3.19965 9.1782 2.90297L15.7395 2.25348C18.3723 1.99286 20.8282 3.45656 21.9023 5.92654L25.8476 14.9984C26.9217 17.4684 26.3888 20.4265 24.5103 22.4216L19.8288 27.3935C17.6902 29.6647 14.3648 30.1112 11.8689 28.4622L4.84417 23.8211C2.82053 22.4841 1.75289 20.0291 2.09849 17.5075Z" stroke="url(#paint8_linear_1_1083)" stroke-width="0.917687"/>
<path opacity="0.714286" d="M2.62304 12.0724L6.93918 5.52854C8.50763 3.15055 11.4403 2.06947 14.1645 2.86504L21.3618 4.96695C24.0291 5.74591 25.8899 8.14813 25.9805 10.9294L26.2414 18.9414C26.332 21.7227 24.632 24.2583 22.0219 25.2348L14.9788 27.8699C12.313 28.8673 9.31719 28.0082 7.59786 25.7534L2.86651 19.5483C1.20491 17.3691 1.10726 14.3706 2.62304 12.0724Z" stroke="url(#paint9_linear_1_1083)" stroke-width="0.917687"/>
<path opacity="0.785714" d="M4.29628 7.80272L11.0116 2.64012C13.4012 0.803027 16.7745 1.00718 19.0719 3.12793L24.0289 7.70387C26.0343 9.55502 26.7618 12.4548 25.8558 14.9855L22.4916 24.3828C21.5856 26.9135 19.2354 28.5465 16.5899 28.4834L10.0506 28.3274C7.01986 28.2551 4.38559 25.9865 3.75618 22.9068L1.98741 14.2521C1.4823 11.7806 2.37858 9.27701 4.29628 7.80272Z" stroke="url(#paint10_linear_1_1083)" stroke-width="0.917687"/>
<path opacity="0.857143" d="M8.07154 4.3312L16.044 2.41418C18.8533 1.73865 21.7331 3.21646 23.0094 5.98858L26.0511 12.595C27.2161 15.1254 26.7765 18.1635 24.9523 20.189L18.6933 27.1387C16.8691 29.1642 14.0527 29.7413 11.6537 28.5812L5.39002 25.5523C2.76173 24.2814 1.28385 21.247 1.81543 18.2129L3.32395 9.60271C3.78251 6.98536 5.64806 4.91394 8.07154 4.3312Z" stroke="url(#paint11_linear_1_1083)" stroke-width="0.917687"/>
<path d="M13.618 3.50946L21.3377 5.61442C24.1486 6.38088 26.0989 8.93373 26.0993 11.8473L26.1004 19.0231C26.1008 21.778 24.3544 24.2302 21.7509 25.1306L13.6925 27.9175C11.089 28.8179 8.20081 27.9686 6.49918 25.802L2.06685 20.1587C0.267223 17.8674 0.223657 14.6552 1.96048 12.3159L6.73036 5.8915C8.31668 3.75493 11.0507 2.80941 13.618 3.50946Z" stroke="url(#paint12_linear_1_1083)" stroke-width="0.917687"/>
<path d="M17.6195 3.44922L24.2995 8.16497C26.6294 9.80984 27.6054 12.7878 26.7009 15.4927L24.2313 22.8778C23.35 25.5133 20.8824 27.2901 18.1034 27.2901H9.68271C6.90379 27.2901 4.43611 25.5133 3.55483 22.8778L1.08528 15.4927C0.180784 12.7878 1.15672 9.80984 3.4867 8.16497L10.1666 3.44922C12.4006 1.87211 15.3855 1.87211 17.6195 3.44922Z" stroke="url(#paint13_linear_1_1083)" stroke-width="0.917687"/>
<defs>
<linearGradient id="paint0_linear_1_1083" x1="9.44308" y1="6.9103" x2="19.4605" y2="23.7644" gradientUnits="userSpaceOnUse">
<stop offset="0.166667" stop-color="#876CF5" stop-opacity="0"/>
<stop offset="0.520833" stop-color="#1FDBFA" stop-opacity="0.6"/>
<stop offset="1" stop-color="#876CF5" stop-opacity="0.36"/>
</linearGradient>
<linearGradient id="paint1_linear_1_1083" x1="12.9103" y1="5.72518" x2="15.1425" y2="25.5319" gradientUnits="userSpaceOnUse">
<stop offset="0.166667" stop-color="#876CF5" stop-opacity="0"/>
<stop offset="0.520833" stop-color="#1FDBFA" stop-opacity="0.6"/>
<stop offset="1" stop-color="#876CF5" stop-opacity="0.36"/>
</linearGradient>
<linearGradient id="paint2_linear_1_1083" x1="16.5331" y1="6.08679" x2="10.3583" y2="24.9225" gradientUnits="userSpaceOnUse">
<stop offset="0.166667" stop-color="#876CF5" stop-opacity="0"/>
<stop offset="0.520833" stop-color="#1FDBFA" stop-opacity="0.6"/>
<stop offset="1" stop-color="#876CF5" stop-opacity="0.36"/>
</linearGradient>
<linearGradient id="paint3_linear_1_1083" x1="19.7371" y1="7.93802" x2="6.78901" y2="22.3291" gradientUnits="userSpaceOnUse">
<stop offset="0.166667" stop-color="#876CF5" stop-opacity="0"/>
<stop offset="0.520833" stop-color="#1FDBFA" stop-opacity="0.6"/>
<stop offset="1" stop-color="#876CF5" stop-opacity="0.36"/>
</linearGradient>
<linearGradient id="paint4_linear_1_1083" x1="22.0114" y1="10.9831" x2="4.97774" y2="19.0773" gradientUnits="userSpaceOnUse">
<stop offset="0.166667" stop-color="#876CF5" stop-opacity="0"/>
<stop offset="0.520833" stop-color="#1FDBFA" stop-opacity="0.6"/>
<stop offset="1" stop-color="#876CF5" stop-opacity="0.36"/>
</linearGradient>
<linearGradient id="paint5_linear_1_1083" x1="22.9949" y1="14.739" x2="4.42429" y2="15.95" gradientUnits="userSpaceOnUse">
<stop offset="0.166667" stop-color="#876CF5" stop-opacity="0"/>
<stop offset="0.520833" stop-color="#1FDBFA" stop-opacity="0.6"/>
<stop offset="1" stop-color="#876CF5" stop-opacity="0.36"/>
</linearGradient>
<linearGradient id="paint6_linear_1_1083" x1="22.5317" y1="18.61" x2="4.6949" y2="12.8822" gradientUnits="userSpaceOnUse">
<stop offset="0.166667" stop-color="#876CF5" stop-opacity="0"/>
<stop offset="0.520833" stop-color="#1FDBFA" stop-opacity="0.6"/>
<stop offset="1" stop-color="#876CF5" stop-opacity="0.36"/>
</linearGradient>
<linearGradient id="paint7_linear_1_1083" x1="20.6949" y1="21.9786" x2="6.01328" y2="9.65002" gradientUnits="userSpaceOnUse">
<stop offset="0.166667" stop-color="#876CF5" stop-opacity="0"/>
<stop offset="0.520833" stop-color="#1FDBFA" stop-opacity="0.6"/>
<stop offset="1" stop-color="#876CF5" stop-opacity="0.36"/>
</linearGradient>
<linearGradient id="paint8_linear_1_1083" x1="17.7767" y1="24.3086" x2="8.97247" y2="6.70013" gradientUnits="userSpaceOnUse">
<stop offset="0.166667" stop-color="#876CF5" stop-opacity="0"/>
<stop offset="0.520833" stop-color="#1FDBFA" stop-opacity="0.6"/>
<stop offset="1" stop-color="#876CF5" stop-opacity="0.36"/>
</linearGradient>
<linearGradient id="paint9_linear_1_1083" x1="14.7987" y1="24.2988" x2="14.1173" y2="6.09972" gradientUnits="userSpaceOnUse">
<stop offset="0.166667" stop-color="#876CF5" stop-opacity="0"/>
<stop offset="0.520833" stop-color="#1FDBFA" stop-opacity="0.6"/>
<stop offset="1" stop-color="#876CF5" stop-opacity="0.36"/>
</linearGradient>
<linearGradient id="paint10_linear_1_1083" x1="10.6502" y1="24.5994" x2="18.1709" y2="6.32737" gradientUnits="userSpaceOnUse">
<stop offset="0.166667" stop-color="#876CF5" stop-opacity="0"/>
<stop offset="0.520833" stop-color="#1FDBFA" stop-opacity="0.6"/>
<stop offset="1" stop-color="#876CF5" stop-opacity="0.36"/>
</linearGradient>
<linearGradient id="paint11_linear_1_1083" x1="7.57498" y1="22.5141" x2="21.4323" y2="9.13135" gradientUnits="userSpaceOnUse">
<stop offset="0.166667" stop-color="#876CF5" stop-opacity="0"/>
<stop offset="0.520833" stop-color="#1FDBFA" stop-opacity="0.6"/>
<stop offset="1" stop-color="#876CF5" stop-opacity="0.36"/>
</linearGradient>
<linearGradient id="paint12_linear_1_1083" x1="5.36945" y1="18.7289" x2="22.9518" y2="12.6482" gradientUnits="userSpaceOnUse">
<stop offset="0.166667" stop-color="#876CF5" stop-opacity="0"/>
<stop offset="0.520833" stop-color="#1FDBFA" stop-opacity="0.6"/>
<stop offset="1" stop-color="#876CF5" stop-opacity="0.36"/>
</linearGradient>
<linearGradient id="paint13_linear_1_1083" x1="4.76707" y1="15.4856" x2="23.3712" y2="15.4856" gradientUnits="userSpaceOnUse">
<stop offset="0.166667" stop-color="#876CF5" stop-opacity="0"/>
<stop offset="0.520833" stop-color="#1FDBFA" stop-opacity="0.6"/>
<stop offset="1" stop-color="#876CF5" stop-opacity="0.36"/>
</linearGradient>
</defs>
</svg>
