<svg width="18" height="18" viewBox="0 0 18 18" fill="none" xmlns="http://www.w3.org/2000/svg">
<path d="M5.58325 7.75H5.59159M9.33325 7.75H9.34159M13.0833 7.75H13.0916M5.16659 14V15.9463C5.16659 16.3903 5.16659 16.6123 5.25761 16.7263C5.33677 16.8255 5.45681 16.8832 5.5837 16.8831C5.72961 16.8829 5.90298 16.7442 6.24972 16.4668L8.2376 14.8765C8.64368 14.5517 8.84673 14.3892 9.07282 14.2737C9.27342 14.1712 9.48694 14.0963 9.7076 14.051C9.95631 14 10.2163 14 10.7364 14H12.8333C14.2334 14 14.9334 14 15.4682 13.7275C15.9386 13.4878 16.3211 13.1054 16.5608 12.635C16.8333 12.1002 16.8333 11.4001 16.8333 10V5.5C16.8333 4.09987 16.8333 3.3998 16.5608 2.86502C16.3211 2.39462 15.9386 2.01217 15.4682 1.77248C14.9334 1.5 14.2334 1.5 12.8333 1.5H5.83325C4.43312 1.5 3.73306 1.5 3.19828 1.77248C2.72787 2.01217 2.34542 2.39462 2.10574 2.86502C1.83325 3.3998 1.83325 4.09987 1.83325 5.5V10.6667C1.83325 11.4416 1.83325 11.8291 1.91844 12.147C2.14961 13.0098 2.82347 13.6836 3.6862 13.9148C4.00412 14 4.39161 14 5.16659 14ZM5.99992 7.75C5.99992 7.98012 5.81337 8.16667 5.58325 8.16667C5.35313 8.16667 5.16659 7.98012 5.16659 7.75C5.16659 7.51988 5.35313 7.33333 5.58325 7.33333C5.81337 7.33333 5.99992 7.51988 5.99992 7.75ZM9.74992 7.75C9.74992 7.98012 9.56337 8.16667 9.33325 8.16667C9.10313 8.16667 8.91659 7.98012 8.91659 7.75C8.91659 7.51988 9.10313 7.33333 9.33325 7.33333C9.56337 7.33333 9.74992 7.51988 9.74992 7.75ZM13.4999 7.75C13.4999 7.98012 13.3134 8.16667 13.0833 8.16667C12.8531 8.16667 12.6666 7.98012 12.6666 7.75C12.6666 7.51988 12.8531 7.33333 13.0833 7.33333C13.3134 7.33333 13.4999 7.51988 13.4999 7.75Z" stroke="#333333" stroke-width="1.67" stroke-linecap="round" stroke-linejoin="round"/>
</svg>
