<svg width="49" height="49" viewBox="0 0 49 49" fill="none" xmlns="http://www.w3.org/2000/svg">
<path opacity="0.5" d="M31.5358 13.6628L30.9145 13.3274C26.9114 11.1656 22.0886 11.1656 18.0855 13.3273L17.4642 13.6628C13.482 15.8132 11 19.9743 11 24.5C11 29.0257 13.482 33.1868 17.4642 35.3372L18.0855 35.6726C22.0886 37.8344 26.9114 37.8344 30.9145 35.6727L31.5358 35.3372C35.518 33.1868 38 29.0257 38 24.5C38 19.9743 35.518 15.8132 31.5358 13.6628Z" stroke="url(#paint0_linear_0_1)" stroke-width="2"/>
<path opacity="0.0714286" d="M37.8903 23.0467L37.4167 29.2605C37.0834 33.6335 33.8017 37.2108 29.4748 37.9178L24.8963 38.6658C20.9391 39.3123 17.0028 37.4036 15.0594 33.8958L11.5333 27.5313C9.58983 24.0236 10.0578 19.6723 12.7028 16.6573L15.7632 13.1689C18.6553 9.87236 23.4266 8.9836 27.3098 11.0182L32.8278 13.9092C36.1883 15.6698 38.1787 19.2624 37.8903 23.0467Z" stroke="url(#paint1_linear_0_1)"/>
<path opacity="0.142857" d="M37.3946 28.3949L34.5317 33.9302C32.5169 37.8257 28.0977 39.836 23.8378 38.795L19.3331 37.6942C15.4379 36.7424 12.5601 33.4471 12.1412 29.4592L11.3806 22.2196C10.9617 18.2316 13.0918 14.4097 16.7041 12.6684L20.8816 10.6546C24.8321 8.75028 29.5725 9.79743 32.3527 13.1886L36.3034 18.0075C38.7086 20.9412 39.1376 25.0249 37.3946 28.3949Z" stroke="url(#paint2_linear_0_1)"/>
<path opacity="0.214286" d="M34.8472 33.1257L30.0503 37.1017C26.6745 39.8997 21.8219 40.0227 18.3074 37.3994L14.5902 34.6247C11.3764 32.2258 10.0143 28.0673 11.1862 24.2324L13.3132 17.2718C14.4851 13.4369 17.9385 10.7514 21.9436 10.5606L26.5762 10.34C30.956 10.1314 34.9103 12.9482 36.1451 17.1566L37.8997 23.1366C38.9681 26.7776 37.768 30.7049 34.8472 33.1257Z" stroke="url(#paint3_linear_0_1)"/>
<path opacity="0.285714" d="M30.6537 36.4857L24.6863 38.2701C20.4867 39.5258 15.9734 37.7431 13.7635 33.9556L11.4238 29.9456C9.40245 26.4812 9.77317 22.1202 12.3502 19.0474L17.024 13.4746C19.6011 10.4019 23.8293 9.27933 27.5904 10.6694L31.9439 12.2784C36.0556 13.798 38.5942 17.9354 38.0874 22.2913L37.3672 28.4808C36.9285 32.2514 34.2889 35.3988 30.6537 36.4857Z" stroke="url(#paint4_linear_0_1)"/>
<path opacity="0.357143" d="M25.4805 37.9393L19.2918 37.2491C14.9364 36.7634 11.4792 33.3598 10.9244 29.0112L10.3363 24.4017C9.82865 20.4226 11.8739 16.5527 15.4471 14.7311L21.9218 11.4305C25.495 9.60893 29.8265 10.2282 32.7456 12.9779L36.1272 16.1633C39.3174 19.1685 40.0376 23.9673 37.8703 27.7782L34.7908 33.1931C32.9137 36.4937 29.2527 38.36 25.4805 37.9393Z" stroke="url(#paint5_linear_0_1)"/>
<path opacity="0.428571" d="M20.1528 37.2529L14.7262 34.1986C10.907 32.049 9.05421 27.5655 10.2415 23.3466L11.5009 18.8718C12.5875 15.0106 15.982 12.2479 19.9832 11.9679L27.2298 11.4609C31.2311 11.181 34.9768 13.4443 36.59 17.1165L38.4595 21.3724C40.2222 25.385 39.011 30.0828 35.528 32.7432L30.5791 36.5234C27.5616 38.8283 23.4616 39.1152 20.1528 37.2529Z" stroke="url(#paint6_linear_0_1)"/>
<path opacity="0.5" d="M15.5182 34.5404L11.7156 29.6073C9.03939 26.1354 9.0849 21.2835 11.8258 17.8638L14.732 14.2377C17.2402 11.1083 21.4435 9.89206 25.2357 11.1985L32.1054 13.565C35.8975 14.8715 38.4614 18.419 38.5122 22.43L38.571 27.0775C38.6265 31.4606 35.6767 35.3119 31.4314 36.3994L25.3993 37.9445C21.7219 38.8864 17.8364 37.5479 15.5182 34.5404Z" stroke="url(#paint7_linear_0_1)"/>
<path opacity="0.571429" d="M12.3117 30.2333L10.7377 24.2047C9.63 19.962 11.5678 15.512 15.4277 13.4349L19.5161 11.2348C23.0472 9.3346 27.3907 9.85769 30.3704 12.542L35.7727 17.4086C38.7525 20.093 39.7264 24.3602 38.2067 28.0723L36.4471 32.3703C34.7858 36.428 30.565 38.8214 26.2318 38.1626L20.0748 37.2266C16.3231 36.6563 13.2708 33.9066 12.3117 30.2333Z" stroke="url(#paint8_linear_0_1)"/>
<path opacity="0.642857" d="M11.041 25.0155L11.9466 18.8497C12.584 14.5105 16.1074 11.1708 20.4733 10.7675L25.0923 10.3409C29.085 9.97211 32.8785 12.1508 34.5725 15.7855L37.6466 22.3811C39.3407 26.0159 38.5704 30.3238 35.7216 33.1468L32.4259 36.4127C29.3108 39.4996 24.4888 40.0533 20.7568 37.7526L15.4537 34.4835C12.2243 32.4926 10.4894 28.7703 11.041 25.0155Z" stroke="url(#paint9_linear_0_1)"/>
<path opacity="0.714286" d="M11.9088 19.7138L15.1507 14.3917C17.4322 10.6464 21.9808 8.94935 26.1578 10.2851L30.5747 11.6976C34.394 12.919 37.0351 16.407 37.175 20.4145L37.4289 27.6896C37.5688 31.6971 35.1773 35.361 31.4525 36.8459L27.1449 38.5632C23.0712 40.1873 18.4153 38.8118 15.8782 35.2348L12.2731 30.152C10.0783 27.0575 9.93509 22.9539 11.9088 19.7138Z" stroke="url(#paint10_linear_0_1)"/>
<path opacity="0.785714" d="M14.7793 15.172L19.8416 11.5406C23.4043 8.98502 28.2534 9.2009 31.5762 12.063L35.0913 15.0907C38.1299 17.708 39.1987 21.9515 37.7623 25.6954L35.1554 32.4901C33.7189 36.2341 30.0866 38.6721 26.0779 38.5829L21.4409 38.4796C17.0573 38.3821 13.3094 35.2962 12.371 31.012L11.0376 24.9243C10.2257 21.2174 11.6967 17.3832 14.7793 15.172Z" stroke="url(#paint11_linear_0_1)"/>
<path opacity="0.857143" d="M19.1976 12.1129L25.2746 10.7494C29.5514 9.78983 33.9291 11.883 35.8694 15.8152L37.9241 19.9793C39.699 23.5763 39.025 27.901 36.2398 30.7866L31.1894 36.019C28.4042 38.9046 24.1079 39.7294 20.4529 38.0803L16.2217 36.1711C12.2261 34.3683 9.98249 30.0641 10.7917 25.7543L11.9416 19.6303C12.6422 15.8993 15.4951 12.9436 19.1976 12.1129Z" stroke="url(#paint12_linear_0_1)"/>
<path d="M29.7259 12.0811L34.9263 15.5067C38.5863 17.9176 40.1221 22.5194 38.6435 26.6452L37.0752 31.0213C35.722 34.7972 32.1432 37.3163 28.1321 37.3163H20.8679C16.8569 37.3163 13.278 34.7972 11.9249 31.0213L10.3566 26.6452C8.87798 22.5194 10.4137 17.9176 14.0737 15.5067L19.2741 12.0811C22.445 9.99244 26.555 9.99244 29.7259 12.0811Z" stroke="url(#paint13_linear_0_1)"/>
<path d="M29.7259 12.0811L34.9263 15.5067C38.5863 17.9176 40.1221 22.5194 38.6435 26.6452L37.0752 31.0213C35.722 34.7972 32.1432 37.3163 28.1321 37.3163H20.8679C16.8569 37.3163 13.278 34.7972 11.9249 31.0213L10.3566 26.6452C8.87798 22.5194 10.4137 17.9176 14.0737 15.5067L19.2741 12.0811C22.445 9.99244 26.555 9.99244 29.7259 12.0811Z" stroke="url(#paint14_linear_0_1)"/>
<circle cx="24.5" cy="24.5" r="20.5" fill="#876CF5" fill-opacity="0.4"/>
<defs>
<linearGradient id="paint0_linear_0_1" x1="15.77" y1="12.9597" x2="33.1878" y2="36.9519" gradientUnits="userSpaceOnUse">
<stop stop-color="#A73EE7"/>
<stop offset="1" stop-color="#00EBFF"/>
</linearGradient>
<linearGradient id="paint1_linear_0_1" x1="19.3346" y1="15.2471" x2="29.812" y2="34.1395" gradientUnits="userSpaceOnUse">
<stop offset="0.166667" stop-color="#876CF5" stop-opacity="0"/>
<stop offset="0.520833" stop-color="#1FDBFA" stop-opacity="0.6"/>
<stop offset="1" stop-color="#876CF5" stop-opacity="0.36"/>
</linearGradient>
<linearGradient id="paint2_linear_0_1" x1="23.3593" y1="13.9629" x2="25.6188" y2="35.4501" gradientUnits="userSpaceOnUse">
<stop offset="0.166667" stop-color="#876CF5" stop-opacity="0"/>
<stop offset="0.520833" stop-color="#1FDBFA" stop-opacity="0.6"/>
<stop offset="1" stop-color="#876CF5" stop-opacity="0.36"/>
</linearGradient>
<linearGradient id="paint3_linear_0_1" x1="27.5643" y1="14.3539" x2="21.2447" y2="35.0138" gradientUnits="userSpaceOnUse">
<stop offset="0.166667" stop-color="#876CF5" stop-opacity="0"/>
<stop offset="0.520833" stop-color="#1FDBFA" stop-opacity="0.6"/>
<stop offset="1" stop-color="#876CF5" stop-opacity="0.36"/>
</linearGradient>
<linearGradient id="paint4_linear_0_1" x1="31.2831" y1="16.3584" x2="17.3939" y2="32.9025" gradientUnits="userSpaceOnUse">
<stop offset="0.166667" stop-color="#876CF5" stop-opacity="0"/>
<stop offset="0.520833" stop-color="#1FDBFA" stop-opacity="0.6"/>
<stop offset="1" stop-color="#876CF5" stop-opacity="0.36"/>
</linearGradient>
<linearGradient id="paint5_linear_0_1" x1="33.9231" y1="19.6583" x2="14.6779" y2="29.4594" gradientUnits="userSpaceOnUse">
<stop offset="0.166667" stop-color="#876CF5" stop-opacity="0"/>
<stop offset="0.520833" stop-color="#1FDBFA" stop-opacity="0.6"/>
<stop offset="1" stop-color="#876CF5" stop-opacity="0.36"/>
</linearGradient>
<linearGradient id="paint6_linear_0_1" x1="35.0651" y1="23.7263" x2="13.5225" y2="25.2319" gradientUnits="userSpaceOnUse">
<stop offset="0.166667" stop-color="#876CF5" stop-opacity="0"/>
<stop offset="0.520833" stop-color="#1FDBFA" stop-opacity="0.6"/>
<stop offset="1" stop-color="#876CF5" stop-opacity="0.36"/>
</linearGradient>
<linearGradient id="paint7_linear_0_1" x1="34.5271" y1="27.9181" x2="14.1065" y2="20.8902" gradientUnits="userSpaceOnUse">
<stop offset="0.166667" stop-color="#876CF5" stop-opacity="0"/>
<stop offset="0.520833" stop-color="#1FDBFA" stop-opacity="0.6"/>
<stop offset="1" stop-color="#876CF5" stop-opacity="0.36"/>
</linearGradient>
<linearGradient id="paint8_linear_0_1" x1="32.3951" y1="31.5661" x2="16.3398" y2="17.1169" gradientUnits="userSpaceOnUse">
<stop offset="0.166667" stop-color="#876CF5" stop-opacity="0"/>
<stop offset="0.520833" stop-color="#1FDBFA" stop-opacity="0.6"/>
<stop offset="1" stop-color="#876CF5" stop-opacity="0.36"/>
</linearGradient>
<linearGradient id="paint9_linear_0_1" x1="29.0077" y1="34.0907" x2="19.8738" y2="14.5127" gradientUnits="userSpaceOnUse">
<stop offset="0.166667" stop-color="#876CF5" stop-opacity="0"/>
<stop offset="0.520833" stop-color="#1FDBFA" stop-opacity="0.6"/>
<stop offset="1" stop-color="#876CF5" stop-opacity="0.36"/>
</linearGradient>
<linearGradient id="paint10_linear_0_1" x1="24.9037" y1="35.0901" x2="24.1493" y2="13.4975" gradientUnits="userSpaceOnUse">
<stop offset="0.166667" stop-color="#876CF5" stop-opacity="0"/>
<stop offset="0.520833" stop-color="#1FDBFA" stop-opacity="0.6"/>
<stop offset="1" stop-color="#876CF5" stop-opacity="0.36"/>
</linearGradient>
<linearGradient id="paint11_linear_0_1" x1="20.7354" y1="34.4066" x2="28.4811" y2="14.2384" gradientUnits="userSpaceOnUse">
<stop offset="0.166667" stop-color="#876CF5" stop-opacity="0"/>
<stop offset="0.520833" stop-color="#1FDBFA" stop-opacity="0.6"/>
<stop offset="1" stop-color="#876CF5" stop-opacity="0.36"/>
</linearGradient>
<linearGradient id="paint12_linear_0_1" x1="17.1659" y1="32.1474" x2="32.1747" y2="16.613" gradientUnits="userSpaceOnUse">
<stop offset="0.166667" stop-color="#876CF5" stop-opacity="0"/>
<stop offset="0.520833" stop-color="#1F79FA" stop-opacity="0.6"/>
<stop offset="1" stop-color="#876CF5" stop-opacity="0.36"/>
</linearGradient>
<linearGradient id="paint13_linear_0_1" x1="13.9069" y1="24.534" x2="35.5019" y2="24.534" gradientUnits="userSpaceOnUse">
<stop offset="0.166667" stop-color="#876CF5" stop-opacity="0"/>
<stop offset="0.520833" stop-color="#1FDBFA" stop-opacity="0.6"/>
<stop offset="1" stop-color="#876CF5" stop-opacity="0.36"/>
</linearGradient>
<linearGradient id="paint14_linear_0_1" x1="13.9069" y1="24.534" x2="35.5019" y2="24.534" gradientUnits="userSpaceOnUse">
<stop offset="0.166667" stop-color="#876CF5" stop-opacity="0"/>
<stop offset="0.520833" stop-color="#1FDBFA" stop-opacity="0.6"/>
<stop offset="1" stop-color="#876CF5" stop-opacity="0.36"/>
</linearGradient>
</defs>
</svg>
