<svg width="19" height="19" viewBox="0 0 19 19" fill="none" xmlns="http://www.w3.org/2000/svg">
<path d="M18.0188 6.9956C18.5995 6.40557 18.592 5.45346 18.0066 4.8775L13.8098 0.681646C13.5247 0.400234 13.1448 0.244519 12.7461 0.250147C12.3456 0.252962 11.9694 0.412428 11.6917 0.693841L0.434313 11.9522C0.287978 12.0995 0.17729 12.2711 0.104123 12.4578C0.0938041 12.4822 0.0853617 12.5066 0.0778574 12.531C0.0272032 12.682 0 12.8424 0 13.0066V17.1996C0 18.027 0.673513 18.7005 1.50086 18.7005H17.2599C17.6746 18.7005 18.0104 18.3646 18.0104 17.95C18.0104 17.5354 17.6746 17.1996 17.2599 17.1996H7.81482L18.0188 6.9956ZM12.762 1.75476L16.9457 5.94687L15.0096 7.88298L10.8212 3.69463L12.762 1.75476ZM4.43787 15.3235L12.3821 7.37926L13.9477 8.94485L6.00346 16.8891L4.43787 15.3235ZM9.75844 4.75556L11.3203 6.31739L3.37695 14.2617L1.81229 12.697L9.75844 4.75556ZM1.49805 14.5056L4.19117 17.1987H1.50086L1.49805 14.5056Z" fill="white"/>
</svg>
