<svg width="22" height="22" viewBox="0 0 22 22" fill="none" xmlns="http://www.w3.org/2000/svg">
<path d="M11 21C16.5228 21 21 16.5228 21 11C21 5.47715 16.5228 1 11 1C5.47715 1 1 5.47715 1 11C1 16.5228 5.47715 21 11 21Z" stroke="white" stroke-width="2" stroke-linecap="round" stroke-linejoin="round"/>
<path d="M6 9.88889C6 9.88889 7.05525 8.37123 7.91254 7.46569C8.76984 6.56015 9.95453 6 11.2632 6C13.8792 6 16 8.23858 16 11C16 13.7614 13.8792 16 11.2632 16C9.10364 16 7.28164 14.4746 6.71146 12.3889M6 9.88889V6.55556M6 9.88889H9.15789" stroke="white" stroke-width="2" stroke-linecap="round" stroke-linejoin="round"/>
</svg>
