<svg width="15" height="10" viewBox="0 0 15 10" fill="none" xmlns="http://www.w3.org/2000/svg">
<path d="M12.5833 4C11.6168 4 10.8333 3.2165 10.8333 2.25C10.8333 1.2835 11.6168 0.5 12.5833 0.5C13.5498 0.5 14.3333 1.2835 14.3333 2.25C14.3333 3.2165 13.5498 4 12.5833 4Z" fill="#333333" fill-opacity="0.24"/>
<path d="M5.58325 2.25C5.58325 3.2165 6.36675 4 7.33325 4C8.29975 4 9.08325 3.2165 9.08325 2.25C9.08325 1.2835 8.29975 0.5 7.33325 0.5C6.36675 0.5 5.58325 1.2835 5.58325 2.25Z" fill="#333333" fill-opacity="0.24"/>
<path d="M0.33325 2.25C0.33325 3.2165 1.11675 4 2.08325 4C3.04975 4 3.83325 3.2165 3.83325 2.25C3.83325 1.2835 3.04975 0.5 2.08325 0.500001C1.11675 0.500001 0.33325 1.2835 0.33325 2.25Z" fill="#333333" fill-opacity="0.24"/>
<path d="M12.5833 9.5C11.6168 9.5 10.8333 8.7165 10.8333 7.75C10.8333 6.7835 11.6168 6 12.5833 6C13.5498 6 14.3333 6.7835 14.3333 7.75C14.3333 8.7165 13.5498 9.5 12.5833 9.5Z" fill="#333333" fill-opacity="0.24"/>
<path d="M5.58325 7.75C5.58325 8.7165 6.36675 9.5 7.33325 9.5C8.29975 9.5 9.08325 8.7165 9.08325 7.75C9.08325 6.7835 8.29975 6 7.33325 6C6.36675 6 5.58325 6.7835 5.58325 7.75Z" fill="#333333" fill-opacity="0.24"/>
<path d="M0.33325 7.75C0.33325 8.7165 1.11675 9.5 2.08325 9.5C3.04975 9.5 3.83325 8.7165 3.83325 7.75C3.83325 6.7835 3.04975 6 2.08325 6C1.11675 6 0.33325 6.7835 0.33325 7.75Z" fill="#333333" fill-opacity="0.24"/>
</svg>
